<mxfile host="app.diagrams.net" modified="2021-12-07T07:22:30.544Z" agent="5.0 (Macintosh; Intel Mac OS X 10_15_7) AppleWebKit/537.36 (KHTML, like Gecko) Chrome/95.0.4638.69 Safari/537.36" etag="QeSGmrwqkFKJVq-asAAI" version="15.9.1" type="github">
  <diagram id="5bXE4xTqYzLnT9e2FAJP" name="Page-1">
    <mxGraphModel dx="1143" dy="657" grid="1" gridSize="10" guides="1" tooltips="1" connect="1" arrows="1" fold="1" page="1" pageScale="1" pageWidth="827" pageHeight="1169" math="0" shadow="0">
      <root>
        <mxCell id="0" />
        <mxCell id="1" parent="0" />
        <mxCell id="IAGBV2r32qKXG1FyeT6h-15" value="" style="rounded=0;whiteSpace=wrap;html=1;" parent="1" vertex="1">
          <mxGeometry x="245" y="180" width="455" height="390" as="geometry" />
        </mxCell>
        <mxCell id="IAGBV2r32qKXG1FyeT6h-1" value="bean&lt;i&gt;的定义信息&amp;nbsp;&lt;/i&gt;" style="rounded=1;whiteSpace=wrap;html=1;" parent="1" vertex="1">
          <mxGeometry x="40" y="310" width="120" height="60" as="geometry" />
        </mxCell>
        <mxCell id="IAGBV2r32qKXG1FyeT6h-8" style="edgeStyle=orthogonalEdgeStyle;rounded=0;orthogonalLoop=1;jettySize=auto;html=1;" parent="1" source="IAGBV2r32qKXG1FyeT6h-2" target="IAGBV2r32qKXG1FyeT6h-16" edge="1">
          <mxGeometry relative="1" as="geometry">
            <mxPoint x="340" y="290" as="targetPoint" />
            <Array as="points">
              <mxPoint x="240" y="420" />
              <mxPoint x="240" y="500" />
            </Array>
          </mxGeometry>
        </mxCell>
        <mxCell id="IAGBV2r32qKXG1FyeT6h-2" value="xml" style="rounded=0;whiteSpace=wrap;html=1;" parent="1" vertex="1">
          <mxGeometry x="40" y="390" width="120" height="60" as="geometry" />
        </mxCell>
        <mxCell id="IAGBV2r32qKXG1FyeT6h-13" value="" style="edgeStyle=orthogonalEdgeStyle;rounded=0;orthogonalLoop=1;jettySize=auto;html=1;" parent="1" source="IAGBV2r32qKXG1FyeT6h-3" target="IAGBV2r32qKXG1FyeT6h-16" edge="1">
          <mxGeometry relative="1" as="geometry">
            <mxPoint x="340" y="290" as="targetPoint" />
          </mxGeometry>
        </mxCell>
        <mxCell id="IAGBV2r32qKXG1FyeT6h-3" value="注解" style="rounded=0;whiteSpace=wrap;html=1;direction=west;" parent="1" vertex="1">
          <mxGeometry x="40" y="470" width="120" height="60" as="geometry" />
        </mxCell>
        <mxCell id="IAGBV2r32qKXG1FyeT6h-25" style="edgeStyle=orthogonalEdgeStyle;rounded=0;orthogonalLoop=1;jettySize=auto;html=1;fontColor=#FFFFFF;" parent="1" source="IAGBV2r32qKXG1FyeT6h-16" target="IAGBV2r32qKXG1FyeT6h-22" edge="1">
          <mxGeometry relative="1" as="geometry">
            <Array as="points">
              <mxPoint x="380" y="460" />
              <mxPoint x="380" y="460" />
            </Array>
          </mxGeometry>
        </mxCell>
        <mxCell id="IAGBV2r32qKXG1FyeT6h-16" value="&lt;font color=&quot;#ff6666&quot;&gt;BeanDefinition&lt;/font&gt;保留原始值（$占位符此时还未被替换）" style="rounded=0;whiteSpace=wrap;html=1;" parent="1" vertex="1">
          <mxGeometry x="300" y="500" width="180" height="50" as="geometry" />
        </mxCell>
        <mxCell id="IAGBV2r32qKXG1FyeT6h-26" style="edgeStyle=orthogonalEdgeStyle;rounded=0;orthogonalLoop=1;jettySize=auto;html=1;fontColor=#FFFFFF;exitX=0.3;exitY=0.033;exitDx=0;exitDy=0;exitPerimeter=0;" parent="1" source="IAGBV2r32qKXG1FyeT6h-18" target="IAGBV2r32qKXG1FyeT6h-21" edge="1">
          <mxGeometry relative="1" as="geometry">
            <Array as="points">
              <mxPoint x="360" y="336" />
            </Array>
          </mxGeometry>
        </mxCell>
        <mxCell id="pUO6GWOM3R9rbuqNOI-t-3" style="edgeStyle=orthogonalEdgeStyle;rounded=0;orthogonalLoop=1;jettySize=auto;html=1;fontColor=#000000;" edge="1" parent="1" source="IAGBV2r32qKXG1FyeT6h-21" target="pUO6GWOM3R9rbuqNOI-t-2">
          <mxGeometry relative="1" as="geometry" />
        </mxCell>
        <mxCell id="IAGBV2r32qKXG1FyeT6h-21" value="&lt;font color=&quot;#000000&quot;&gt;最终的BD对象&lt;/font&gt;" style="rounded=0;whiteSpace=wrap;html=1;fontColor=#FFFFFF;" parent="1" vertex="1">
          <mxGeometry x="300" y="220" width="120" height="60" as="geometry" />
        </mxCell>
        <mxCell id="IAGBV2r32qKXG1FyeT6h-27" value="" style="group" parent="1" vertex="1" connectable="0">
          <mxGeometry x="300" y="315" width="180" height="120" as="geometry" />
        </mxCell>
        <mxCell id="IAGBV2r32qKXG1FyeT6h-22" value="" style="rounded=0;whiteSpace=wrap;html=1;fontColor=#000000;fillColor=#e3c800;strokeColor=#B09500;" parent="IAGBV2r32qKXG1FyeT6h-27" vertex="1">
          <mxGeometry width="180" height="120" as="geometry" />
        </mxCell>
        <mxCell id="IAGBV2r32qKXG1FyeT6h-17" value="&lt;font color=&quot;#000000&quot;&gt;BeanFactoryPostProcessor&lt;/font&gt;" style="rounded=0;whiteSpace=wrap;html=1;fontColor=#FF6666;" parent="IAGBV2r32qKXG1FyeT6h-27" vertex="1">
          <mxGeometry x="10" y="60" width="160" height="30" as="geometry" />
        </mxCell>
        <mxCell id="IAGBV2r32qKXG1FyeT6h-18" value="很多个postProcessor。。" style="text;html=1;strokeColor=none;fillColor=none;align=center;verticalAlign=middle;whiteSpace=wrap;rounded=0;fontColor=#FFFFFF;" parent="IAGBV2r32qKXG1FyeT6h-27" vertex="1">
          <mxGeometry x="20" y="20" width="140" height="30" as="geometry" />
        </mxCell>
        <mxCell id="IAGBV2r32qKXG1FyeT6h-38" style="edgeStyle=orthogonalEdgeStyle;rounded=0;orthogonalLoop=1;jettySize=auto;html=1;fontColor=#FFFFFF;" parent="1" source="IAGBV2r32qKXG1FyeT6h-35" target="IAGBV2r32qKXG1FyeT6h-36" edge="1">
          <mxGeometry relative="1" as="geometry" />
        </mxCell>
        <mxCell id="IAGBV2r32qKXG1FyeT6h-39" style="edgeStyle=orthogonalEdgeStyle;rounded=0;orthogonalLoop=1;jettySize=auto;html=1;fontColor=#FFFFFF;" parent="1" source="IAGBV2r32qKXG1FyeT6h-35" target="IAGBV2r32qKXG1FyeT6h-37" edge="1">
          <mxGeometry relative="1" as="geometry" />
        </mxCell>
        <mxCell id="IAGBV2r32qKXG1FyeT6h-35" value="&lt;font color=&quot;#000000&quot;&gt;PostProcessor&lt;br&gt;（后置处理器、增强器）&lt;/font&gt;" style="rounded=0;whiteSpace=wrap;html=1;fontColor=#FFFFFF;" parent="1" vertex="1">
          <mxGeometry x="40" y="770" width="160" height="60" as="geometry" />
        </mxCell>
        <mxCell id="IAGBV2r32qKXG1FyeT6h-45" style="edgeStyle=orthogonalEdgeStyle;rounded=0;orthogonalLoop=1;jettySize=auto;html=1;fontColor=#FFFFFF;" parent="1" source="IAGBV2r32qKXG1FyeT6h-36" target="IAGBV2r32qKXG1FyeT6h-44" edge="1">
          <mxGeometry relative="1" as="geometry" />
        </mxCell>
        <mxCell id="IAGBV2r32qKXG1FyeT6h-36" value="&lt;font color=&quot;#000000&quot;&gt;BeanFactoryPostProcessor&lt;/font&gt;" style="rounded=0;whiteSpace=wrap;html=1;fontColor=#FFFFFF;" parent="1" vertex="1">
          <mxGeometry x="300" y="740" width="160" height="60" as="geometry" />
        </mxCell>
        <mxCell id="IAGBV2r32qKXG1FyeT6h-37" value="&lt;font color=&quot;#000000&quot;&gt;BeanPostProcessor&lt;/font&gt;" style="rounded=0;whiteSpace=wrap;html=1;fontColor=#FFFFFF;" parent="1" vertex="1">
          <mxGeometry x="300" y="810" width="160" height="60" as="geometry" />
        </mxCell>
        <mxCell id="IAGBV2r32qKXG1FyeT6h-43" style="edgeStyle=orthogonalEdgeStyle;rounded=0;orthogonalLoop=1;jettySize=auto;html=1;fontColor=#FFFFFF;entryX=0.4;entryY=-0.017;entryDx=0;entryDy=0;entryPerimeter=0;" parent="1" source="IAGBV2r32qKXG1FyeT6h-41" target="IAGBV2r32qKXG1FyeT6h-42" edge="1">
          <mxGeometry relative="1" as="geometry" />
        </mxCell>
        <mxCell id="IAGBV2r32qKXG1FyeT6h-41" value="&lt;font color=&quot;#000000&quot;&gt;beanFactory&lt;/font&gt;" style="rounded=0;whiteSpace=wrap;html=1;fontColor=#FFFFFF;" parent="1" vertex="1">
          <mxGeometry x="40" y="590" width="120" height="60" as="geometry" />
        </mxCell>
        <mxCell id="IAGBV2r32qKXG1FyeT6h-42" value="&lt;font color=&quot;#000000&quot;&gt;applicationContext（beanFactory的子类）&lt;/font&gt;" style="rounded=0;whiteSpace=wrap;html=1;fontColor=#FFFFFF;" parent="1" vertex="1">
          <mxGeometry x="40" y="690" width="150" height="60" as="geometry" />
        </mxCell>
        <mxCell id="IAGBV2r32qKXG1FyeT6h-47" style="edgeStyle=orthogonalEdgeStyle;rounded=0;orthogonalLoop=1;jettySize=auto;html=1;fontColor=#FFFFFF;" parent="1" source="IAGBV2r32qKXG1FyeT6h-44" target="IAGBV2r32qKXG1FyeT6h-46" edge="1">
          <mxGeometry relative="1" as="geometry" />
        </mxCell>
        <mxCell id="IAGBV2r32qKXG1FyeT6h-44" value="&lt;font color=&quot;#000000&quot;&gt;BeanDefinitionRegistryPostProcessor&lt;/font&gt;" style="rounded=0;whiteSpace=wrap;html=1;fontColor=#FFFFFF;" parent="1" vertex="1">
          <mxGeometry x="500" y="740" width="220" height="60" as="geometry" />
        </mxCell>
        <mxCell id="IAGBV2r32qKXG1FyeT6h-49" style="edgeStyle=orthogonalEdgeStyle;rounded=0;orthogonalLoop=1;jettySize=auto;html=1;fontColor=#FFFFFF;" parent="1" source="IAGBV2r32qKXG1FyeT6h-46" target="IAGBV2r32qKXG1FyeT6h-48" edge="1">
          <mxGeometry relative="1" as="geometry" />
        </mxCell>
        <mxCell id="IAGBV2r32qKXG1FyeT6h-46" value="&lt;font color=&quot;#000000&quot;&gt;ConfigurationClassPostProcessor&lt;/font&gt;" style="rounded=0;whiteSpace=wrap;html=1;fontColor=#FFFFFF;" parent="1" vertex="1">
          <mxGeometry x="500" y="830" width="220" height="90" as="geometry" />
        </mxCell>
        <mxCell id="IAGBV2r32qKXG1FyeT6h-48" value="&lt;font color=&quot;#000000&quot;&gt;Springboot自动装配原理&lt;/font&gt;" style="rounded=0;whiteSpace=wrap;html=1;fontColor=#FFFFFF;" parent="1" vertex="1">
          <mxGeometry x="500" y="950" width="220" height="60" as="geometry" />
        </mxCell>
        <mxCell id="pUO6GWOM3R9rbuqNOI-t-1" value="BeanFactory" style="rounded=0;whiteSpace=wrap;html=1;fontColor=#000000;" vertex="1" parent="1">
          <mxGeometry x="300" y="160" width="120" height="30" as="geometry" />
        </mxCell>
        <mxCell id="pUO6GWOM3R9rbuqNOI-t-6" style="edgeStyle=orthogonalEdgeStyle;rounded=0;orthogonalLoop=1;jettySize=auto;html=1;fontColor=#000000;" edge="1" parent="1" source="pUO6GWOM3R9rbuqNOI-t-2" target="pUO6GWOM3R9rbuqNOI-t-5">
          <mxGeometry relative="1" as="geometry" />
        </mxCell>
        <mxCell id="pUO6GWOM3R9rbuqNOI-t-2" value="创建对象" style="rounded=0;whiteSpace=wrap;html=1;fontColor=#000000;" vertex="1" parent="1">
          <mxGeometry x="530" y="220" width="120" height="60" as="geometry" />
        </mxCell>
        <mxCell id="pUO6GWOM3R9rbuqNOI-t-5" value="销毁对象" style="rounded=0;whiteSpace=wrap;html=1;fontColor=#000000;" vertex="1" parent="1">
          <mxGeometry x="530" y="315" width="120" height="60" as="geometry" />
        </mxCell>
        <mxCell id="pUO6GWOM3R9rbuqNOI-t-10" style="edgeStyle=orthogonalEdgeStyle;rounded=0;orthogonalLoop=1;jettySize=auto;html=1;fontColor=#000000;" edge="1" parent="1" source="pUO6GWOM3R9rbuqNOI-t-7" target="pUO6GWOM3R9rbuqNOI-t-8">
          <mxGeometry relative="1" as="geometry" />
        </mxCell>
        <mxCell id="pUO6GWOM3R9rbuqNOI-t-11" style="edgeStyle=orthogonalEdgeStyle;rounded=0;orthogonalLoop=1;jettySize=auto;html=1;fontColor=#000000;" edge="1" parent="1" source="pUO6GWOM3R9rbuqNOI-t-7" target="pUO6GWOM3R9rbuqNOI-t-9">
          <mxGeometry relative="1" as="geometry" />
        </mxCell>
        <mxCell id="pUO6GWOM3R9rbuqNOI-t-7" value="创建对象" style="rounded=0;whiteSpace=wrap;html=1;fontColor=#000000;" vertex="1" parent="1">
          <mxGeometry x="30" y="1110" width="120" height="60" as="geometry" />
        </mxCell>
        <mxCell id="pUO6GWOM3R9rbuqNOI-t-15" style="edgeStyle=orthogonalEdgeStyle;rounded=0;orthogonalLoop=1;jettySize=auto;html=1;entryX=0;entryY=0.5;entryDx=0;entryDy=0;fontColor=#000000;" edge="1" parent="1" source="pUO6GWOM3R9rbuqNOI-t-8" target="pUO6GWOM3R9rbuqNOI-t-13">
          <mxGeometry relative="1" as="geometry" />
        </mxCell>
        <mxCell id="pUO6GWOM3R9rbuqNOI-t-8" value="实例化" style="rounded=0;whiteSpace=wrap;html=1;fontColor=#000000;" vertex="1" parent="1">
          <mxGeometry x="230" y="1060" width="120" height="60" as="geometry" />
        </mxCell>
        <mxCell id="pUO6GWOM3R9rbuqNOI-t-16" style="edgeStyle=orthogonalEdgeStyle;rounded=0;orthogonalLoop=1;jettySize=auto;html=1;entryX=0;entryY=0.5;entryDx=0;entryDy=0;fontColor=#000000;" edge="1" parent="1" source="pUO6GWOM3R9rbuqNOI-t-9" target="pUO6GWOM3R9rbuqNOI-t-14">
          <mxGeometry relative="1" as="geometry" />
        </mxCell>
        <mxCell id="pUO6GWOM3R9rbuqNOI-t-9" value="初始化" style="rounded=0;whiteSpace=wrap;html=1;fontColor=#000000;" vertex="1" parent="1">
          <mxGeometry x="230" y="1150" width="120" height="60" as="geometry" />
        </mxCell>
        <mxCell id="pUO6GWOM3R9rbuqNOI-t-12" value="实例化：分配内存，设置属性默认值" style="rounded=0;whiteSpace=wrap;html=1;fontColor=#000000;" vertex="1" parent="1">
          <mxGeometry x="190" y="1250" width="280" height="60" as="geometry" />
        </mxCell>
        <mxCell id="pUO6GWOM3R9rbuqNOI-t-13" value="分配内存，属性值默认值" style="rounded=0;whiteSpace=wrap;html=1;fontColor=#000000;" vertex="1" parent="1">
          <mxGeometry x="450" y="1060" width="160" height="60" as="geometry" />
        </mxCell>
        <mxCell id="pUO6GWOM3R9rbuqNOI-t-14" value="1、属性赋值&lt;br&gt;2、执行init方法&lt;br&gt;3、扩展实现" style="rounded=0;whiteSpace=wrap;html=1;fontColor=#000000;" vertex="1" parent="1">
          <mxGeometry x="450" y="1150" width="160" height="60" as="geometry" />
        </mxCell>
        <mxCell id="pUO6GWOM3R9rbuqNOI-t-18" value="" style="rounded=0;whiteSpace=wrap;html=1;fontColor=#000000;" vertex="1" parent="1">
          <mxGeometry x="190" y="1340" width="280" height="270" as="geometry" />
        </mxCell>
        <mxCell id="pUO6GWOM3R9rbuqNOI-t-19" value="属性赋值" style="rounded=0;whiteSpace=wrap;html=1;fontColor=#000000;" vertex="1" parent="1">
          <mxGeometry x="270" y="1360" width="120" height="50" as="geometry" />
        </mxCell>
      </root>
    </mxGraphModel>
  </diagram>
</mxfile>
